subject_02
version=1
nRows=256
nColumns=3
inDegrees=yes
endheader
time	r_shoulder_elev	r_elbow_flex
0.0000	20.436163	20.025702
0.0100	20.436163	20.025798
0.0200	20.436163	20.026202
0.0300	20.436163	20.027425
0.0400	20.436163	20.029948
0.0500	20.436163	20.034185
0.0600	20.436163	20.040474
0.0700	20.436163	20.049091
0.0800	20.436163	20.060286
0.0900	20.436163	20.074337
0.1000	20.436163	20.091574
0.1100	20.436163	20.112397
0.1200	20.436163	20.137243
0.1300	20.436163	20.166543
0.1400	20.436163	20.200662
0.1500	20.436163	20.239847
0.1600	20.436163	20.284215
0.1700	20.436163	20.333772
0.1800	20.436163	20.388478
0.1900	20.436163	20.448328
0.2000	20.436163	20.513441
0.2100	20.436163	20.584119
0.2200	20.436163	20.660853
0.2300	20.436163	20.744284
0.2400	20.436163	20.835110
0.2500	20.436163	20.933966
0.2600	20.436163	21.041313
0.2700	20.436163	21.157356
0.2800	20.436163	21.282021
0.2900	20.436163	21.414996
0.3000	20.436163	21.555828
0.3100	20.436163	21.704054
0.3200	20.436163	21.859325
0.3300	20.436163	22.021507
0.3400	20.436163	22.190725
0.3500	20.436163	22.367349
0.3600	20.436163	22.551924
0.3700	20.436163	22.745070
0.3800	20.436163	22.947374
0.3900	20.436163	23.159308
0.4000	20.436163	23.381175
0.4100	20.436163	23.613108
0.4200	20.436163	23.855092
0.4300	20.436163	24.107013
0.4400	20.436163	24.368702
0.4500	20.436163	24.639972
0.4600	20.436163	24.920627
0.4700	20.436163	25.210463
0.4800	20.436163	25.509259
0.4900	20.436163	25.816780
0.5000	20.436163	26.132800
0.5100	20.436163	26.457139
0.5200	20.436163	26.789721
0.5300	20.436163	27.130617
0.5400	20.436163	27.480074
0.5500	20.436163	27.838499
0.5600	20.436163	28.206402
0.5700	20.436163	28.584296
0.5800	20.436163	28.972585
0.5900	20.436163	29.371463
0.6000	20.436163	29.780844
0.6100	20.436163	30.200364
0.6200	20.436163	30.629432
0.6300	20.436163	31.067346
0.6400	20.436163	31.513428
0.6500	20.436163	31.967152
0.6600	20.436163	32.428242
0.6700	20.436163	32.896692
0.6800	20.436163	33.372735
0.6900	20.436163	33.856742
0.7000	20.436163	34.349106
0.7100	20.436163	34.850124
0.7200	20.436163	35.359914
0.7300	20.436163	35.878391
0.7400	20.436163	36.405295
0.7500	20.436163	36.940266
0.7600	20.436163	37.482927
0.7700	20.436163	38.032966
0.7800	20.436163	38.590175
0.7900	20.436163	39.154444
0.8000	20.436163	39.725724
0.8100	20.436163	40.303964
0.8200	20.436163	40.889053
0.8300	20.436163	41.480803
0.8400	20.436163	42.078950
0.8500	20.436163	42.683215
0.8600	20.436163	43.293364
0.8700	20.436163	43.909268
0.8800	20.436163	44.530927
0.8900	20.436163	45.158441
0.9000	20.436163	45.791936
0.9100	20.436163	46.431458
0.9200	20.436163	47.076875
0.9300	20.436163	47.727812
0.9400	20.436163	48.383665
0.9500	20.436163	49.043686
0.9600	20.436163	49.707131
0.9700	20.436163	50.373436
0.9800	20.436163	51.042358
0.9900	20.436163	51.714055
1.0000	20.436163	52.389048
1.0100	20.436163	53.068080
1.0200	20.436163	53.751889
1.0300	20.436163	54.440960
1.0400	20.436163	55.135315
1.0500	20.436163	55.834412
1.0600	20.436163	56.537179
1.0700	20.436163	57.242198
1.0800	20.436163	57.947991
1.0900	20.436163	58.653337
1.1000	20.436163	59.357547
1.1100	20.436163	60.060603
1.1200	20.436163	60.763142
1.1300	20.436163	61.466259
1.1400	20.436163	62.171193
1.1500	20.436163	62.878964
1.1600	20.436163	63.590063
1.1700	20.436163	64.304273
1.1800	20.436163	65.020673
1.1900	20.436163	65.737826
1.2000	20.436163	66.454095
1.2100	20.436163	67.168018
1.2200	20.436163	67.878626
1.2300	20.436163	68.585635
1.2400	20.436163	69.289453
1.2500	20.436163	69.991001
1.2600	20.436163	70.691417
1.2700	20.436163	71.391698
1.2800	20.436163	72.092397
1.2900	20.436163	72.793450
1.3000	20.436163	73.494169
1.3100	20.436163	74.193395
1.3200	20.436163	74.889770
1.3300	20.436163	75.582033
1.3400	20.436163	76.269277
1.3500	20.436163	76.951073
1.3600	20.436163	77.627470
1.3700	20.436163	78.298858
1.3800	20.436163	78.965765
1.3900	20.436163	79.628654
1.4000	20.436163	80.287782
1.4100	20.436163	80.943166
1.4200	20.436163	81.594649
1.4300	20.436163	82.242029
1.4400	20.436163	82.885189
1.4500	20.436163	83.524163
1.4600	20.436163	84.159101
1.4700	20.436163	84.790122
1.4800	20.436163	85.417117
1.4900	20.436163	86.039551
1.5000	20.436163	86.656369
1.5100	20.436163	87.266066
1.5200	20.436163	87.866928
1.5300	20.436163	88.457420
1.5400	20.436163	89.036618
1.5500	20.436163	89.604561
1.5600	20.436163	90.162399
1.5700	20.436163	90.712260
1.5800	20.436163	91.256836
1.5900	20.436163	91.798741
1.6000	20.436163	92.339818
1.6100	20.436163	92.880547
1.6200	20.436163	93.419754
1.6300	20.436163	93.954708
1.6400	20.436163	94.481635
1.6500	20.436163	94.996536
1.6600	20.436163	95.496140
1.6700	20.436163	95.978727
1.6800	20.436163	96.444624
1.6900	20.436163	96.896199
1.7000	20.436163	97.337350
1.7100	20.436163	97.772567
1.7200	20.436163	98.205806
1.7300	20.436163	98.639453
1.7400	20.436163	99.073640
1.7500	20.436163	99.506121
1.7600	20.436163	99.932745
1.7700	20.436163	100.348438
1.7800	20.436163	100.748457
1.7900	20.436163	101.129593
1.8000	20.436163	101.491026
1.8100	20.436163	101.834592
1.8200	20.436163	102.164385
1.8300	20.436163	102.485774
1.8400	20.436163	102.804089
1.8500	20.436163	103.123279
1.8600	20.436163	103.444906
1.8700	20.436163	103.767722
1.8800	20.436163	104.087937
1.8900	20.436163	104.400126
1.9000	20.436163	104.698536
1.9100	20.436163	104.978475
1.9200	20.436163	105.237428
1.9300	20.436163	105.475631
1.9400	20.436163	105.695963
1.9500	20.436163	105.903200
1.9600	20.436163	106.102830
1.9700	20.436163	106.299743
1.9800	20.436163	106.497124
1.9900	20.436163	106.695822
2.0000	20.436163	106.894337
2.0100	20.436163	107.089394
2.0200	20.436163	107.276927
2.0300	20.436163	107.453201
2.0400	20.436163	107.615757
2.0500	20.436163	107.763943
2.0600	20.436163	107.898913
2.0700	20.436163	108.023125
2.0800	20.436163	108.139492
2.0900	20.436163	108.250474
2.1000	20.436163	108.357351
2.1100	20.436163	108.459896
2.1200	20.436163	108.556547
2.1300	20.436163	108.644997
2.1400	20.436163	108.723048
2.1500	20.436163	108.789456
2.1600	20.436163	108.844528
2.1700	20.436163	108.890278
2.1800	20.436163	108.930089
2.1900	20.436163	108.967961
2.2000	20.436163	109.007528
2.2100	20.436163	109.051130
2.2200	20.436163	109.099165
2.2300	20.436163	109.149921
2.2400	20.436163	109.199927
2.2500	20.436163	109.244748
2.2600	20.436163	109.280036
2.2700	20.436163	109.302560
2.2800	20.436163	109.310984
2.2900	20.436163	109.306209
2.3000	20.436163	109.291200
2.3100	20.436163	109.270378
2.3200	20.436163	109.248723
2.3300	20.436163	109.230817
2.3400	20.436163	109.220058
2.3500	20.436163	109.218189
2.3600	20.436163	109.225177
2.3700	20.436163	109.239284
2.3800	20.436163	109.257784
2.3900	20.436163	109.277684
2.4000	20.436163	109.296284
2.4100	20.436163	109.311551
2.4200	20.436163	109.322266
2.4300	20.436163	109.327968
2.4400	20.436163	109.328768
2.4500	20.436163	109.325144
2.4600	20.436163	109.317781
2.4700	20.436163	109.307515
2.4800	20.436163	109.295357
2.4900	20.436163	109.282551
2.5000	20.436163	109.270582
2.5100	20.436163	109.261101
2.5200	20.436163	109.255704
2.5300	20.436163	109.255640
2.5400	20.436163	109.261482
2.5500	20.436163	109.272885
